<?xml version="1.0" encoding="UTF-8" standalone="no"?>
<!-- Created with Inkscape (http://www.inkscape.org/) -->

<svg
   xmlns:dc="http://purl.org/dc/elements/1.1/"
   xmlns:cc="http://creativecommons.org/ns#"
   xmlns:rdf="http://www.w3.org/1999/02/22-rdf-syntax-ns#"
   xmlns:svg="http://www.w3.org/2000/svg"
   xmlns="http://www.w3.org/2000/svg"
   xmlns:sodipodi="http://sodipodi.sourceforge.net/DTD/sodipodi-0.dtd"
   xmlns:inkscape="http://www.inkscape.org/namespaces/inkscape"
   width="120"
   height="120"
   id="svg2"
   version="1.1"
   inkscape:version="0.48.1 r9760"
   sodipodi:docname="gopi2.svg">
  <sodipodi:namedview
     id="base"
     pagecolor="#ffffff"
     bordercolor="#666666"
     borderopacity="1.0"
     inkscape:pageopacity="0.0"
     inkscape:pageshadow="2"
     inkscape:zoom="3.959798"
     inkscape:cx="78.545073"
     inkscape:cy="64.704438"
     inkscape:document-units="px"
     inkscape:current-layer="layer1"
     showgrid="false"
     inkscape:window-width="1440"
     inkscape:window-height="839"
     inkscape:window-x="-4"
     inkscape:window-y="-4"
     inkscape:window-maximized="1" />
  <defs
     id="defs4" />
  <metadata
     id="metadata7">
    <rdf:RDF>
      <cc:Work
         rdf:about="">
        <dc:format>image/svg+xml</dc:format>
        <dc:type
           rdf:resource="http://purl.org/dc/dcmitype/StillImage" />
        <dc:title />
      </cc:Work>
    </rdf:RDF>
  </metadata>
  <g
     transform="translate(0,-932.36218)"
     id="layer1"
     inkscape:groupmode="layer"
     inkscape:label="Calque 1">
    <g
       id="g3220">
      <g
         word-spacing="normal"
         letter-spacing="normal"
         font-size-adjust="none"
         font-stretch="normal"
         font-weight="normal"
         font-variant="normal"
         font-style="normal"
         fill-rule="even-odd"
         stroke-miterlimit="10.433"
         xml:space="preserve"
         transform="matrix(0.28571429,0,0,-0.28571429,-50,187.5)"
         id="content"
         style="font-style:normal;font-variant:normal;font-weight:normal;font-stretch:normal;letter-spacing:normal;word-spacing:normal;text-anchor:start;fill:none;stroke:#000000;stroke-linecap:butt;stroke-linejoin:miter;stroke-miterlimit:10.43299961;stroke-opacity:1;stroke-dasharray:none;stroke-dashoffset:0"><path
           id="path3223"
           d="m 477.27,436.24 0.03,0.13 0.03,0.12 0.03,0.11 0.03,0.11 0.03,0.11 0.03,0.09 0.03,0.1 0.03,0.08 0.03,0.09 0.03,0.07 0.03,0.08 0.03,0.06 0.03,0.07 0.03,0.06 0.03,0.05 0.03,0.06 0.03,0.04 0.03,0.05 0.04,0.04 0.03,0.04 0.04,0.03 0.03,0.04 0.04,0.03 0.04,0.02 0.04,0.03 0.05,0.02 0.04,0.02 0.05,0.02 0.05,0.02 0.05,0.02 0.05,0.01 0.05,0.02 c 0.45,0.1 2.1,0.1 3.14,0.1 5.04,0 7.28,-0.2 7.28,-4.09 0,-0.74 -0.2,-2.68 -0.4,-3.98 -0.05,-0.2 -0.15,-0.8 -0.15,-0.95 0,-0.3 0.15,-0.64 0.6,-0.64 0.55,0 0.64,0.39 0.74,1.14 l 1.35,8.67 c 0.05,0.2 0.1,0.7 0.1,0.85 0,0.54 -0.5,0.54 -1.35,0.54 h -27.64 c -1.2,0 -1.25,-0.05 -1.6,-0.99 l -2.98,-8.77 c -0.05,-0.1 -0.3,-0.8 -0.3,-0.9 0,-0.29 0.25,-0.54 0.59,-0.54 0.5,0 0.55,0.25 0.85,1.04 2.69,7.72 3.98,8.62 11.36,8.62 h 1.94 c 1.4,0 1.4,-0.2 1.4,-0.6 0,-0.3 -0.16,-0.9 -0.2,-1.04 l -6.68,-26.61 c -0.45,-1.84 -0.6,-2.39 -5.93,-2.39 -1.79,0 -2.09,0 -2.09,-0.94 0,-0.6 0.55,-0.6 0.85,-0.6 1.34,0 2.74,0.1 4.08,0.1 h 8.37 c 1.44,0 2.94,-0.1 4.33,-0.1 0.5,0 1.1,0 1.1,1 0,0.54 -0.4,0.54 -1.69,0.54 -1.25,0 -1.89,0 -3.19,0.1 -1.45,0.15 -1.84,0.3 -1.84,1.1 0,0.05 0,0.3 0.19,1.05 z"
           inkscape:connector-curvature="0"
           style="fill:#000000;stroke-width:0" /><path
           id="path3225"
           d="m 496.68,421.18 0,0.04 0,0.04 0,0.04 0,0.04 0,0.04 0,0.04 0,0.03 0,0.04 -0.01,0.03 0,0.03 0,0.04 0,0.03 -0.01,0.02 0,0.03 0,0.03 -0.01,0.03 0,0.02 0,0.02 -0.02,0.05 -0.01,0.04 -0.01,0.04 -0.02,0.03 -0.02,0.03 -0.02,0.03 -0.03,0.03 -0.02,0.02 -0.03,0.02 -0.04,0.02 -0.03,0.01 -0.04,0.01 -0.05,0.02 -0.05,0 -0.02,0.01 -0.03,0 -0.03,0.01 -0.02,0 -0.03,0 -0.03,0 -0.04,0 -0.03,0.01 -0.03,0 -0.04,0 -0.03,0 -0.04,0 -0.04,0 -0.04,0 -0.04,0 -0.04,0 -0.05,0 -0.04,0 c -2.24,-2.19 -5.41,-2.23 -6.84,-2.23 v -1.25 c 0.84,0 3.14,0 5.06,0.97 v -17.78 c 0,-1.15 0,-1.61 -3.49,-1.61 h -1.33 V 399 h 12.45 v 1.25 h -1.32 c -3.49,0 -3.49,0.46 -3.49,1.61 z"
           inkscape:connector-curvature="0"
           style="fill:#000000;stroke-width:0" /><path
           id="path3227"
           d="m 528.27,436.24 0.03,0.13 0.03,0.12 0.03,0.11 0.03,0.11 0.03,0.11 0.03,0.09 0.03,0.1 0.03,0.08 0.03,0.09 0.03,0.07 0.03,0.08 0.03,0.06 0.03,0.07 0.03,0.06 0.03,0.05 0.03,0.06 0.03,0.04 0.03,0.05 0.04,0.04 0.03,0.04 0.04,0.03 0.03,0.04 0.04,0.03 0.04,0.02 0.04,0.03 0.05,0.02 0.04,0.02 0.05,0.02 0.05,0.02 0.05,0.02 0.05,0.01 0.05,0.02 c 0.45,0.1 2.1,0.1 3.14,0.1 5.04,0 7.28,-0.2 7.28,-4.09 0,-0.74 -0.2,-2.68 -0.4,-3.98 -0.05,-0.2 -0.15,-0.8 -0.15,-0.95 0,-0.3 0.15,-0.64 0.6,-0.64 0.55,0 0.64,0.39 0.74,1.14 l 1.35,8.67 c 0.05,0.2 0.1,0.7 0.1,0.85 0,0.54 -0.5,0.54 -1.35,0.54 h -27.64 c -1.2,0 -1.25,-0.05 -1.6,-0.99 l -2.98,-8.77 c -0.05,-0.1 -0.3,-0.8 -0.3,-0.9 0,-0.29 0.25,-0.54 0.59,-0.54 0.5,0 0.55,0.25 0.85,1.04 2.69,7.72 3.98,8.62 11.36,8.62 h 1.94 c 1.4,0 1.4,-0.2 1.4,-0.6 0,-0.3 -0.16,-0.9 -0.2,-1.04 l -6.68,-26.61 c -0.45,-1.84 -0.6,-2.39 -5.93,-2.39 -1.79,0 -2.09,0 -2.09,-0.94 0,-0.6 0.55,-0.6 0.85,-0.6 1.34,0 2.74,0.1 4.08,0.1 h 8.37 c 1.44,0 2.94,-0.1 4.33,-0.1 0.5,0 1.1,0 1.1,1 0,0.54 -0.4,0.54 -1.69,0.54 -1.25,0 -1.89,0 -3.19,0.1 -1.45,0.15 -1.84,0.3 -1.84,1.1 0,0.05 0,0.3 0.2,1.05 z"
           inkscape:connector-curvature="0"
           style="fill:#000000;stroke-width:0" /><path
           id="path3229"
           d="m 553.61,405.35 h -1.19 c -0.1,-0.77 -0.45,-2.83 -0.9,-3.18 -0.28,-0.21 -2.97,-0.21 -3.45,-0.21 h -6.42 c 3.66,3.25 4.88,4.22 6.97,5.86 2.58,2.06 4.99,4.22 4.99,7.54 0,4.21 -3.7,6.79 -8.16,6.79 -4.33,0 -7.25,-3.03 -7.25,-6.24 0,-1.78 1.5,-1.95 1.84,-1.95 0.84,0 1.86,0.59 1.86,1.85 0,0.62 -0.25,1.85 -2.06,1.85 1.08,2.47 3.45,3.24 5.09,3.24 3.48,0 5.3,-2.72 5.3,-5.54 0,-3.04 -2.16,-5.45 -3.28,-6.7 l -8.4,-8.3 c -0.35,-0.31 -0.35,-0.38 -0.35,-1.36 h 14.36 z"
           inkscape:connector-curvature="0"
           style="fill:#000000;stroke-width:0" /></g>    </g>
    <g
       id="g3535"
       transform="translate(-54.031788,18.429388)">
      <path
         inkscape:connector-curvature="0"
         id="path3926"
         d="M 151.42857,951.38731 112.85714,1003.173"
         style="fill:none;stroke:#000000;stroke-width:1px;stroke-linecap:butt;stroke-linejoin:miter;stroke-opacity:1" />
      <path
         style="fill:none;stroke:#000000;stroke-width:1px;stroke-linecap:butt;stroke-linejoin:miter;stroke-opacity:1"
         d="M 74.857138,951.38731 113.42857,1003.173"
         id="path3924"
         inkscape:connector-curvature="0" />
      <g
         id="g3831"
         transform="translate(42.022109,133.23942)">
        <path
           sodipodi:type="arc"
           style="fill:#ffffff;fill-opacity:1;stroke:#000000;stroke-width:1;stroke-miterlimit:4;stroke-dasharray:none"
           id="path3822"
           sodipodi:cx="33.335033"
           sodipodi:cy="123.2233"
           sodipodi:rx="12.626906"
           sodipodi:ry="12.626906"
           d="m 45.96194,123.2233 c 0,6.97364 -5.653259,12.6269 -12.626907,12.6269 -6.973647,0 -12.626906,-5.65326 -12.626906,-12.6269 0,-6.97365 5.653259,-12.62691 12.626906,-12.62691 6.973648,0 12.626907,5.65326 12.626907,12.62691 z"
           transform="translate(37.142857,745.64789)" />
        <flowRoot
           xml:space="preserve"
           id="flowRoot3014"
           style="font-size:20px;font-style:italic;font-variant:normal;font-weight:normal;font-stretch:normal;text-align:start;line-height:125%;letter-spacing:0px;word-spacing:0px;writing-mode:lr-tb;text-anchor:start;fill:#000000;fill-opacity:1;stroke:none;font-family:LMMathSymbols10;-inkscape-font-specification:LMMathSymbols10 Italic"
           transform="matrix(1,0,0,-1,65.31789,1031.8408)"><flowRegion
             id="flowRegion3016"><rect
               id="rect3018"
               width="151.01781"
               height="89.398499"
               x="-1.5152289"
               y="157.5685"
               style="font-size:20px;font-style:italic;font-variant:normal;font-weight:normal;font-stretch:normal;text-align:start;line-height:125%;writing-mode:lr-tb;text-anchor:start;font-family:LMMathSymbols10;-inkscape-font-specification:LMMathSymbols10 Italic" /></flowRegion><flowPara
             id="flowPara3022">∨</flowPara></flowRoot>      </g>
      <flowRoot
         transform="translate(93.214286,892.71932)"
         style="font-size:20px;font-style:italic;font-variant:normal;font-weight:normal;font-stretch:normal;text-align:start;line-height:125%;letter-spacing:0px;word-spacing:0px;writing-mode:lr-tb;text-anchor:start;fill:#000000;fill-opacity:1;stroke:none;font-family:LMMathItalic12;-inkscape-font-specification:LMMathItalic12 Italic"
         id="flowRoot3485"
         xml:space="preserve"><flowRegion
           id="flowRegion3487"><rect
             style="font-size:20px;font-style:italic;font-variant:normal;font-weight:normal;font-stretch:normal;text-align:start;line-height:125%;writing-mode:lr-tb;text-anchor:start;font-family:LMMathItalic12;-inkscape-font-specification:LMMathItalic12 Italic"
             y="37.857143"
             x="-26.071428"
             height="85.714287"
             width="176.07143"
             id="rect3489" /></flowRegion><flowPara
           id="flowPara3493">T</flowPara></flowRoot>      <flowRoot
         xml:space="preserve"
         id="flowRoot3507"
         style="font-size:20px;font-style:italic;font-variant:normal;font-weight:normal;font-stretch:normal;text-align:start;line-height:125%;letter-spacing:0px;word-spacing:0px;writing-mode:lr-tb;text-anchor:start;fill:#000000;fill-opacity:1;stroke:none;font-family:LMMathItalic12;-inkscape-font-specification:LMMathItalic12 Italic"
         transform="translate(171.21429,892.71932)"><flowRegion
           id="flowRegion3509"><rect
             id="rect3511"
             width="176.07143"
             height="85.714287"
             x="-26.071428"
             y="37.857143"
             style="font-size:20px;font-style:italic;font-variant:normal;font-weight:normal;font-stretch:normal;text-align:start;line-height:125%;writing-mode:lr-tb;text-anchor:start;font-family:LMMathItalic12;-inkscape-font-specification:LMMathItalic12 Italic" /></flowRegion><flowPara
           id="flowPara3513">T</flowPara></flowRoot>      <flowRoot
         transform="translate(181.21429,898.71932)"
         style="font-size:12px;font-style:normal;font-variant:normal;font-weight:normal;font-stretch:normal;text-align:start;line-height:125%;letter-spacing:0px;word-spacing:0px;writing-mode:lr-tb;text-anchor:start;fill:#000000;fill-opacity:1;stroke:none;font-family:LMRoman12;-inkscape-font-specification:LMRoman12"
         id="flowRoot3515"
         xml:space="preserve"><flowRegion
           id="flowRegion3517"><rect
             style="font-size:12px;font-style:normal;font-variant:normal;font-weight:normal;font-stretch:normal;text-align:start;line-height:125%;writing-mode:lr-tb;text-anchor:start;font-family:LMRoman12;-inkscape-font-specification:LMRoman12"
             y="37.857143"
             x="-26.071428"
             height="85.714287"
             width="176.07143"
             id="rect3519" /></flowRegion><flowPara
           id="flowPara3523">2</flowPara></flowRoot>      <flowRoot
         xml:space="preserve"
         id="flowRoot3525"
         style="font-size:12px;font-style:normal;font-variant:normal;font-weight:normal;font-stretch:normal;text-align:start;line-height:125%;letter-spacing:0px;word-spacing:0px;writing-mode:lr-tb;text-anchor:start;fill:#000000;fill-opacity:1;stroke:none;font-family:LMRoman12;-inkscape-font-specification:LMRoman12"
         transform="translate(103.21429,898.71932)"><flowRegion
           id="flowRegion3527"><rect
             id="rect3529"
             width="176.07143"
             height="85.714287"
             x="-26.071428"
             y="37.857143"
             style="font-size:12px;font-style:normal;font-variant:normal;font-weight:normal;font-stretch:normal;text-align:start;line-height:125%;writing-mode:lr-tb;text-anchor:start;font-family:LMRoman12;-inkscape-font-specification:LMRoman12" /></flowRegion><flowPara
           id="flowPara3533">1</flowPara></flowRoot>    </g>
  </g>
</svg>
